<?xml version="1.0" encoding="iso-8859-1"?>
<!-- Generator: Adobe Illustrator 19.0.0, SVG Export Plug-In . SVG Version: 6.00 Build 0)  -->
<svg version="1.1" id="Capa_1" xmlns="http://www.w3.org/2000/svg" xmlns:xlink="http://www.w3.org/1999/xlink" x="0px" y="0px"
	 viewBox="0 0 480.123 480.123" style="enable-background:new 0 0 480.123 480.123;" xml:space="preserve">
<g>
	<g>
		<g>
			<path d="M413.056,196.543c-15.204-69.038-83.495-112.68-152.533-97.476c-31.493,6.935-59.207,25.502-77.603,51.988
				c-35.862-17.108-78.802-1.904-95.91,33.958c-5.797,12.152-8.068,25.688-6.554,39.066H80c-44.183,0-80,35.817-80,80
				c0,44.183,35.817,80,80,80h304c53.019,0.068,96.055-42.858,96.122-95.877C480.176,246.283,453.025,209.176,413.056,196.543z
				 M384,368.079H80c-35.346,0-64-28.654-64-64c0-35.346,28.654-64,64-64c3.051,0,6.099,0.213,9.12,0.64
				c4.374,0.621,8.424-2.421,9.046-6.795c0.152-1.073,0.085-2.166-0.198-3.213c-8.08-29.854,9.572-60.605,39.425-68.685
				c14.927-4.04,30.86-1.728,44.023,6.389c3.765,2.313,8.691,1.136,11.004-2.629c0.004-0.006,0.008-0.013,0.012-0.019
				c32.208-52.809,101.128-69.51,153.937-37.302c27.356,16.684,46.256,44.285,51.919,75.822c0.554,3.075,2.847,5.546,5.872,6.328
				c42.782,11.036,68.518,54.664,57.482,97.447C452.511,343.455,420.553,368.16,384,368.079z"/>
			<rect x="184" y="288.079" width="16" height="32"/>
			<rect x="216" y="256.079" width="16" height="64"/>
			<rect x="248" y="224.079" width="16" height="96"/>
			<rect x="280" y="192.079" width="16" height="128"/>
			<rect x="312" y="160.079" width="16" height="160"/>
		</g>
	</g>
</g>
<g>
</g>
<g>
</g>
<g>
</g>
<g>
</g>
<g>
</g>
<g>
</g>
<g>
</g>
<g>
</g>
<g>
</g>
<g>
</g>
<g>
</g>
<g>
</g>
<g>
</g>
<g>
</g>
<g>
</g>
</svg>
